<svg id="visual" viewBox="0 0 1920 1080" width="1920" height="1080" xmlns="http://www.w3.org/2000/svg" xmlns:xlink="http://www.w3.org/1999/xlink" version="1.1"><rect x="0" y="0" width="1920" height="1080" fill="#1e001f"></rect><path d="M0 833L22.8 831.5C45.7 830 91.3 827 137 833.5C182.7 840 228.3 856 274 866.3C319.7 876.7 365.3 881.3 411.2 882.5C457 883.7 503 881.3 548.8 869C594.7 856.7 640.3 834.3 686 831.2C731.7 828 777.3 844 823 853.7C868.7 863.3 914.3 866.7 960 867.7C1005.7 868.7 1051.3 867.3 1097 859.8C1142.7 852.3 1188.3 838.7 1234 843.3C1279.7 848 1325.3 871 1371.2 869.3C1417 867.7 1463 841.3 1508.8 833C1554.7 824.7 1600.3 834.3 1646 849.2C1691.7 864 1737.3 884 1783 878C1828.7 872 1874.3 840 1897.2 824L1920 808L1920 1081L1897.2 1081C1874.3 1081 1828.7 1081 1783 1081C1737.3 1081 1691.7 1081 1646 1081C1600.3 1081 1554.7 1081 1508.8 1081C1463 1081 1417 1081 1371.2 1081C1325.3 1081 1279.7 1081 1234 1081C1188.3 1081 1142.7 1081 1097 1081C1051.3 1081 1005.7 1081 960 1081C914.3 1081 868.7 1081 823 1081C777.3 1081 731.7 1081 686 1081C640.3 1081 594.7 1081 548.8 1081C503 1081 457 1081 411.2 1081C365.3 1081 319.7 1081 274 1081C228.3 1081 182.7 1081 137 1081C91.3 1081 45.7 1081 22.8 1081L0 1081Z" fill="#542cb3"></path><path d="M0 927L22.8 925.2C45.7 923.3 91.3 919.7 137 913.3C182.7 907 228.3 898 274 900.2C319.7 902.3 365.3 915.7 411.2 918.3C457 921 503 913 548.8 901.3C594.7 889.7 640.3 874.3 686 865.8C731.7 857.3 777.3 855.7 823 856.5C868.7 857.3 914.3 860.7 960 868.5C1005.7 876.3 1051.3 888.7 1097 888.2C1142.7 887.7 1188.3 874.3 1234 872.5C1279.7 870.7 1325.3 880.3 1371.2 881.2C1417 882 1463 874 1508.8 880C1554.7 886 1600.3 906 1646 912.3C1691.7 918.7 1737.3 911.3 1783 903.3C1828.7 895.3 1874.3 886.7 1897.2 882.3L1920 878L1920 1081L1897.2 1081C1874.3 1081 1828.7 1081 1783 1081C1737.3 1081 1691.7 1081 1646 1081C1600.3 1081 1554.7 1081 1508.8 1081C1463 1081 1417 1081 1371.2 1081C1325.3 1081 1279.7 1081 1234 1081C1188.3 1081 1142.7 1081 1097 1081C1051.3 1081 1005.7 1081 960 1081C914.3 1081 868.7 1081 823 1081C777.3 1081 731.7 1081 686 1081C640.3 1081 594.7 1081 548.8 1081C503 1081 457 1081 411.2 1081C365.3 1081 319.7 1081 274 1081C228.3 1081 182.7 1081 137 1081C91.3 1081 45.7 1081 22.8 1081L0 1081Z" fill="#7821a8"></path><path d="M0 949L22.8 945.7C45.7 942.3 91.3 935.7 137 932.3C182.7 929 228.3 929 274 923.3C319.7 917.7 365.3 906.3 411.2 905.8C457 905.3 503 915.7 548.8 912.7C594.7 909.7 640.3 893.3 686 897C731.7 900.7 777.3 924.3 823 932.8C868.7 941.3 914.3 934.7 960 923.3C1005.7 912 1051.3 896 1097 894.2C1142.7 892.3 1188.3 904.7 1234 907.8C1279.7 911 1325.3 905 1371.2 910.2C1417 915.3 1463 931.7 1508.8 937.2C1554.7 942.7 1600.3 937.3 1646 933.5C1691.7 929.7 1737.3 927.3 1783 921.8C1828.7 916.3 1874.3 907.7 1897.2 903.3L1920 899L1920 1081L1897.2 1081C1874.3 1081 1828.7 1081 1783 1081C1737.3 1081 1691.7 1081 1646 1081C1600.3 1081 1554.7 1081 1508.8 1081C1463 1081 1417 1081 1371.2 1081C1325.3 1081 1279.7 1081 1234 1081C1188.3 1081 1142.7 1081 1097 1081C1051.3 1081 1005.7 1081 960 1081C914.3 1081 868.7 1081 823 1081C777.3 1081 731.7 1081 686 1081C640.3 1081 594.7 1081 548.8 1081C503 1081 457 1081 411.2 1081C365.3 1081 319.7 1081 274 1081C228.3 1081 182.7 1081 137 1081C91.3 1081 45.7 1081 22.8 1081L0 1081Z" fill="#92159b"></path><path d="M0 921L22.8 919.5C45.7 918 91.3 915 137 917.7C182.7 920.3 228.3 928.7 274 929.3C319.7 930 365.3 923 411.2 924.7C457 926.3 503 936.7 548.8 936.3C594.7 936 640.3 925 686 929.5C731.7 934 777.3 954 823 965.3C868.7 976.7 914.3 979.3 960 969.7C1005.7 960 1051.3 938 1097 928C1142.7 918 1188.3 920 1234 930.3C1279.7 940.7 1325.3 959.3 1371.2 961C1417 962.7 1463 947.3 1508.8 940.2C1554.7 933 1600.3 934 1646 941.5C1691.7 949 1737.3 963 1783 967.8C1828.7 972.7 1874.3 968.3 1897.2 966.2L1920 964L1920 1081L1897.2 1081C1874.3 1081 1828.7 1081 1783 1081C1737.3 1081 1691.7 1081 1646 1081C1600.3 1081 1554.7 1081 1508.8 1081C1463 1081 1417 1081 1371.2 1081C1325.3 1081 1279.7 1081 1234 1081C1188.3 1081 1142.7 1081 1097 1081C1051.3 1081 1005.7 1081 960 1081C914.3 1081 868.7 1081 823 1081C777.3 1081 731.7 1081 686 1081C640.3 1081 594.7 1081 548.8 1081C503 1081 457 1081 411.2 1081C365.3 1081 319.7 1081 274 1081C228.3 1081 182.7 1081 137 1081C91.3 1081 45.7 1081 22.8 1081L0 1081Z" fill="#a5088e"></path><path d="M0 963L22.8 967.5C45.7 972 91.3 981 137 981.3C182.7 981.7 228.3 973.3 274 973.3C319.7 973.3 365.3 981.7 411.2 985.8C457 990 503 990 548.8 990.8C594.7 991.7 640.3 993.3 686 992.5C731.7 991.7 777.3 988.3 823 986.2C868.7 984 914.3 983 960 976.8C1005.7 970.7 1051.3 959.3 1097 961.3C1142.7 963.3 1188.3 978.7 1234 983C1279.7 987.3 1325.3 980.7 1371.2 974.3C1417 968 1463 962 1508.8 964.7C1554.7 967.3 1600.3 978.7 1646 984.5C1691.7 990.3 1737.3 990.7 1783 990.3C1828.7 990 1874.3 989 1897.2 988.5L1920 988L1920 1081L1897.2 1081C1874.3 1081 1828.7 1081 1783 1081C1737.3 1081 1691.7 1081 1646 1081C1600.3 1081 1554.7 1081 1508.8 1081C1463 1081 1417 1081 1371.2 1081C1325.3 1081 1279.7 1081 1234 1081C1188.3 1081 1142.7 1081 1097 1081C1051.3 1081 1005.7 1081 960 1081C914.3 1081 868.7 1081 823 1081C777.3 1081 731.7 1081 686 1081C640.3 1081 594.7 1081 548.8 1081C503 1081 457 1081 411.2 1081C365.3 1081 319.7 1081 274 1081C228.3 1081 182.7 1081 137 1081C91.3 1081 45.7 1081 22.8 1081L0 1081Z" fill="#b40681"></path><path d="M0 1013L22.8 1014.7C45.7 1016.3 91.3 1019.7 137 1018.5C182.7 1017.3 228.3 1011.7 274 1011.5C319.7 1011.3 365.3 1016.7 411.2 1014.5C457 1012.3 503 1002.7 548.8 1000.3C594.7 998 640.3 1003 686 1001.8C731.7 1000.7 777.3 993.3 823 990.2C868.7 987 914.3 988 960 995.8C1005.7 1003.7 1051.3 1018.3 1097 1022.5C1142.7 1026.7 1188.3 1020.3 1234 1015.5C1279.7 1010.7 1325.3 1007.3 1371.2 1004.8C1417 1002.3 1463 1000.7 1508.8 998.5C1554.7 996.3 1600.3 993.7 1646 996.8C1691.7 1000 1737.3 1009 1783 1009.7C1828.7 1010.3 1874.3 1002.7 1897.2 998.8L1920 995L1920 1081L1897.2 1081C1874.3 1081 1828.7 1081 1783 1081C1737.3 1081 1691.7 1081 1646 1081C1600.3 1081 1554.7 1081 1508.8 1081C1463 1081 1417 1081 1371.2 1081C1325.3 1081 1279.7 1081 1234 1081C1188.3 1081 1142.7 1081 1097 1081C1051.3 1081 1005.7 1081 960 1081C914.3 1081 868.7 1081 823 1081C777.3 1081 731.7 1081 686 1081C640.3 1081 594.7 1081 548.8 1081C503 1081 457 1081 411.2 1081C365.3 1081 319.7 1081 274 1081C228.3 1081 182.7 1081 137 1081C91.3 1081 45.7 1081 22.8 1081L0 1081Z" fill="#bf1374"></path><path d="M0 1053L22.8 1053.8C45.7 1054.7 91.3 1056.3 137 1050.7C182.7 1045 228.3 1032 274 1028.8C319.7 1025.7 365.3 1032.3 411.2 1034.2C457 1036 503 1033 548.8 1031.7C594.7 1030.3 640.3 1030.7 686 1030C731.7 1029.3 777.3 1027.7 823 1030.8C868.7 1034 914.3 1042 960 1046C1005.7 1050 1051.3 1050 1097 1048.3C1142.7 1046.7 1188.3 1043.3 1234 1044.3C1279.7 1045.3 1325.3 1050.7 1371.2 1050.8C1417 1051 1463 1046 1508.8 1046.2C1554.7 1046.3 1600.3 1051.7 1646 1050.7C1691.7 1049.7 1737.3 1042.3 1783 1040.8C1828.7 1039.3 1874.3 1043.7 1897.2 1045.8L1920 1048L1920 1081L1897.2 1081C1874.3 1081 1828.7 1081 1783 1081C1737.3 1081 1691.7 1081 1646 1081C1600.3 1081 1554.7 1081 1508.8 1081C1463 1081 1417 1081 1371.2 1081C1325.3 1081 1279.7 1081 1234 1081C1188.3 1081 1142.7 1081 1097 1081C1051.3 1081 1005.7 1081 960 1081C914.3 1081 868.7 1081 823 1081C777.3 1081 731.7 1081 686 1081C640.3 1081 594.7 1081 548.8 1081C503 1081 457 1081 411.2 1081C365.3 1081 319.7 1081 274 1081C228.3 1081 182.7 1081 137 1081C91.3 1081 45.7 1081 22.8 1081L0 1081Z" fill="#c62368"></path></svg>